<?xml version="1.0" encoding="utf-8"?>
<!-- Generator: Adobe Illustrator 28.0.0, SVG Export Plug-In . SVG Version: 6.00 Build 0)  -->
<svg version="1.1" id="Layer_1" xmlns="http://www.w3.org/2000/svg" xmlns:xlink="http://www.w3.org/1999/xlink" x="0px" y="0px"
	 viewBox="0 0 856 127" style="enable-background:new 0 0 856 127;" xml:space="preserve">
<style type="text/css">
	.st0{fill:#9A999F;}
	.st1{fill:#FFFFFF;}
	.st2{font-family:'MenckenStdNarrow-ExtraBold';}
	.st3{font-size:41.1517px;}
</style>
<g>
	<path class="st0" d="M82,64.5v7.2l-4.1,0.1c-0.1,12.6-3.1,22.6-8.9,30.1s-14,11.2-24.8,11.2c-11.1,0-19.9-4.6-26.4-13.9
		C11.3,90,8.1,77.7,8.1,62.3c0-15.8,3.5-28.8,10.5-38.9c7-10.1,16-15.1,27-15.1c3.6,0,6.9,0.7,10,2.1c3.1,1.4,5.6,3.5,7.7,6.2l3-6.6
		h6.4l-0.2,30.8h-7c-1.3-8.7-3.5-15.1-6.8-19.2c-3.3-4.2-7.2-6.2-11.8-6.2c-4.2,0-7.3,2.6-9.4,7.7c-2.1,5.1-3.2,13.6-3.2,25.4v28
		c0,11.8,0.7,19.6,2.2,23.5c1.5,3.9,3.8,5.8,7.1,5.8c3.1,0,5.5-1.5,7-4.4c1.5-2.9,2.2-8.3,2.2-16V71.5H46v-7.2L82,64.5z"/>
	<path class="st0" d="M85.8,110.8v-7.2h7.1V16.8h-7.1V9.7h37.4v7.2h-6.9v37.5h19.5V16.8h-7.1V9.7H166v7.2h-6.9v86.7h6.9v7.2h-37.4
		v-7.2h7.1V61.7h-19.5v41.9h6.9v7.2H85.8z"/>
	<path class="st0" d="M223.2,77V44.9c0-10.6-1-18-3-22.5s-5-6.7-9-6.7c-4.1,0-7.1,2.2-9.1,6.7c-2,4.4-3,11.9-3,22.5V77
		c0,10.6,1,18.3,3,22.6c2,4.5,5,6.7,9,6.7c4,0,7.1-2.2,9-6.7C222.2,95.1,223.2,87.6,223.2,77L223.2,77z M173,60.9
		c0-8.3,1.1-15.8,3.3-22.2c2.2-6.5,5.7-12.5,10.3-17.8c3.4-3.9,7.3-6.9,11.5-9.1c4.2-2.1,8.6-3.2,13-3.2c4.5,0,8.9,1.1,13.2,3.2
		c4.3,2.1,8.1,5.2,11.5,9.1c4.6,5.3,8,11.2,10.3,17.8c2.2,6.6,3.3,14,3.3,22.2c0,8.3-1.1,15.6-3.3,22.1c-2.2,6.5-5.6,12.5-10.3,17.9
		c-3.4,3.9-7.2,6.9-11.5,9.1c-4.3,2.2-8.7,3.3-13.3,3.3c-4.4,0-8.7-1.1-13-3.3c-4.2-2.2-8.1-5.2-11.6-9.1
		c-4.7-5.3-8.2-11.3-10.4-17.8c-2.2-6.5-3.3-13.9-3.3-22.2L173,60.9z"/>
	<path class="st0" d="M258.2,110.8V78.1h6.4c1.1,9.3,3.4,16.1,6.8,20.5c3.5,4.3,7.8,6.5,13.1,6.5c3.8,0,6.9-1.2,9.4-3.8
		c2.5-2.5,3.7-5.8,3.7-9.8c0-3.3-0.9-6.3-2.8-9S288.4,76,281,70.9c-8.9-6.2-14.9-11.9-18-17c-3.1-5.1-4.7-11.1-4.7-18.3
		c0-8.1,2.3-14.7,7-20c4.7-5.2,10.7-7.8,18-7.8c3.1,0,6.1,0.6,9,1.7c2.9,1.1,5.4,2.7,7.4,4.7l2.7-5.1h5.9v29H302
		c-1.8-8.3-4.3-14.2-7.6-17.9c-3.3-3.7-7.2-5.6-11.8-5.6c-3.3,0-6.1,1-8.3,3.1s-3.4,4.7-3.4,7.7c0,4.9,5.3,10.9,15.8,17.9
		c2.8,1.9,4.9,3.3,6.3,4.3c6.2,4.3,10.8,9.2,13.8,14.5c2.9,5.4,4.4,11.6,4.4,18.8c0,9.1-2.5,16.6-7.4,22.5c-4.9,5.9-11.3,8.8-19,8.8
		c-3.1,0-6.2-0.6-9.3-1.8c-3.1-1.2-5.7-2.8-7.9-4.9l-3.4,5L258.2,110.8z"/>
	<path class="st0" d="M329.5,110.8v-7.2h10.1V16.7h0.5c-4.2,0-7.7,1.9-10.3,5.8c-2.6,3.9-4.9,11-6.8,21.4h-6.6l0.9-34.2h68.2
		l0.8,34.2h-6.5c-2-10.6-4.3-17.8-6.9-21.5c-2.6-3.8-6-5.7-10.2-5.7h0.5v86.9h10.1v7.2L329.5,110.8z"/>
</g>
<path class="st0" d="M434.5,9.5l-63.9,110.1h127.5"/>
<g>
	<path class="st0" d="M498.2,110.8V78.1h6.4c1.1,9.3,3.4,16.1,6.8,20.5c3.5,4.3,7.8,6.5,13.1,6.5c3.8,0,6.9-1.2,9.4-3.8
		s3.7-5.8,3.7-9.8c0-3.3-0.9-6.3-2.8-9c-1.9-2.7-6.5-6.6-13.9-11.7c-8.9-6.2-14.9-11.9-18-17c-3.1-5.1-4.7-11.1-4.7-18.3
		c0-8.1,2.3-14.7,7-20c4.7-5.2,10.7-7.8,18-7.8c3.1,0,6.1,0.6,9.1,1.7s5.4,2.7,7.3,4.7l2.7-5.1h5.9v29H542
		c-1.8-8.3-4.3-14.2-7.6-17.9c-3.3-3.7-7.2-5.6-11.8-5.6c-3.3,0-6.1,1-8.3,3.1c-2.2,2.1-3.4,4.7-3.4,7.7c0,4.9,5.2,10.9,15.8,17.9
		c2.8,1.9,4.9,3.3,6.3,4.3c6.2,4.3,10.8,9.2,13.8,14.5c2.9,5.4,4.3,11.6,4.3,18.8c0,9.1-2.5,16.6-7.4,22.5c-4.9,5.9-11.3,8.8-19,8.8
		c-3.1,0-6.2-0.6-9.3-1.8c-3.1-1.2-5.7-2.8-7.9-4.9l-3.4,5L498.2,110.8z"/>
	<path class="st0" d="M557,110.8v-7.2h7.1V16.8H557V9.7h37.4v7.2h-6.9v37.5H607V16.8h-7.1V9.7h37.4v7.2h-6.9v86.7h6.9v7.2h-37.4
		v-7.2h7.1V61.7h-19.5v41.9h6.9v7.2H557z"/>
	<path class="st0" d="M644.5,110.8v-7.2h7.1V16.8h-7.1V9.7h62.6l1,28h-6.5c-2.2-8.5-4.8-14.1-8-16.7c-3.1-2.7-8.2-4-15.1-4h-3.5
		v37.5c3.3-0.1,5.8-1.2,7.7-3.5c1.8-2.2,2.9-6.8,3.1-13.8h6.7v43.8h-6.7c-0.3-7.8-1.4-13-3.2-15.4c-1.8-2.4-4.3-3.7-7.6-3.7v41.9
		h3.6c7.9,0,13.8-2,17.4-5.9c3.6-3.9,6-11.3,7.1-22.2h6.9l-1.4,35.3L644.5,110.8z"/>
	<path class="st0" d="M715.8,110.8v-7.2h7.1V16.8h-7.1V9.7h38.5v7.2h-8v86.7h5.3c6.4,0,11.3-2.1,14.6-6.3c3.3-4.2,5.6-11.7,6.7-22.5
		h6.8v36L715.8,110.8z"/>
	<path class="st0" d="M784.5,110.8v-7.2h7.1V16.8h-7.1V9.7H823v7.2h-8v86.7h5.3c6.4,0,11.3-2.1,14.6-6.3c3.3-4.2,5.6-11.7,6.7-22.5
		h6.8v36L784.5,110.8z"/>
</g>
<path class="st1" d="M434.2,76v-2h2.1V50h-2.1v-2h8.1l7.4,16.6V50h-2.2v-2h6.5v2h-2.1v26.5h-2.4l-11-24V74h2.2v2L434.2,76z"/>
<path class="st1" d="M400.8,115.8v-2.4h3.3v-29h0.2c-1.4,0-2.6,0.6-3.5,1.9c-0.9,1.3-1.6,3.7-2.3,7.1h-2.2l0.3-11.4h22.8l0.3,11.4
	h-2.2c-0.7-3.5-1.4-5.9-2.3-7.2s-2-1.9-3.4-1.9h0.2v29h3.4v2.4H400.8z"/>
<path class="st1" d="M422,115.8v-2.4h2.4V84.5H422v-2.4h12.5v2.4h-2.3V97h6.5V84.5h-2.4v-2.4h12.5v2.4h-2.3v28.9h2.3v2.4h-12.5v-2.4
	h2.4v-14h-6.5v14h2.3v2.4H422z"/>
<path class="st1" d="M450.8,115.8v-2.4h2.4V84.5h-2.4v-2.4h20.9l0.3,9.3h-2.2c-0.7-2.8-1.6-4.7-2.6-5.6c-1-0.9-2.7-1.3-5.1-1.3h-1.2
	V97c1.1,0,2-0.4,2.6-1.2s1-2.3,1-4.6h2.2v14.6h-2.2c-0.1-2.6-0.5-4.3-1.1-5.1c-0.6-0.8-1.5-1.2-2.5-1.2v14h1.2c2.6,0,4.6-0.7,5.8-2
	c1.2-1.3,2-3.8,2.4-7.4h2.3l-0.5,11.8L450.8,115.8z"/>
<text transform="matrix(0.9609 0 0 1 411.6123 75.751)" class="st1 st2 st3">O</text>
</svg>
